<?xml version="1.0" standalone="no"?>
<!DOCTYPE svg PUBLIC "-//W3C//DTD SVG 20010904//EN"
 "http://www.w3.org/TR/2001/REC-SVG-20010904/DTD/svg10.dtd">
<svg version="1.0" xmlns="http://www.w3.org/2000/svg"
 width="100.000000pt" height="100.000000pt" viewBox="0 0 100.000000 100.000000"
 preserveAspectRatio="xMidYMid meet">

<g transform="translate(0.000000,100.000000) scale(0.100000,-0.100000)"
fill="#000000" stroke="none">
<path d="M379 952 c-341 -89 -463 -515 -222 -773 92 -99 208 -149 343 -149
356 0 582 381 412 693 -80 149 -244 246 -412 246 -30 0 -85 -8 -121 -17z m191
-129 c25 -23 44 -70 117 -286 66 -198 84 -263 76 -275 -12 -20 -36 -26 -70
-18 -33 9 -48 46 -124 313 -35 123 -66 219 -70 215 -3 -4 -34 -108 -69 -232
-35 -124 -69 -237 -77 -252 -16 -34 -45 -50 -80 -46 -56 7 -54 21 37 291 97
288 115 317 189 317 30 0 48 -7 71 -27z"/>
</g>
</svg>
